@startuml core02_01_analysis_cell_delegate.png
    interface Extensible<T> {
        +T getExtension(String name);
    }
    interface "Cell : Extensible<Cell>" as Cell {
    }
    class CellImpl {
        -transient Map<String, CellExtension> extensions;
        +Cell getExtension(String name);
    }
    class CellExtension {
	-Cell delegate;
	-String name;
        +CellExtension(Cell delegate, String name)
    }
    class StylableCell {
    }
    interface CellListenner {
    }
    class "CommentableCell" as CommentableCell {
        -String userComment;
    }
    class "CommentableCellWithMultipleUsers" as comUsers {
        -User user;
        -List<Pair<User,String> commentsWithUser;
    }

    class User{
        -String name;
    }

    interface Spreadsheet{
    }

    class SpreadsheetImpl{
        -Map<Adress, Cell> cells;
    }
    
    class Workbook{
        -List<Spreadsheet> spreadsheets
    }

    Extensible <|-- Cell

    Cell <|-- CellExtension
    CellListenner <|-- CellExtension
    CellExtension <|-- StylableCell

    Cell <|-- CellImpl

    CellImpl o- CellExtension : extensions

    CellExtension <|-- CommentableCell
    CommentableCell <|-- comUsers
    comUsers o-- User
    
    Spreadsheet <|-- SpreadsheetImpl
    SpreadsheetImpl o- Cell: cells
    
    Workbook o- Spreadsheet: spreadsheets

@enduml

