@startuml cd2_insert_function_basic_wizard.png
skinparam handwritten true
skinparam monochrome true
skinparam packageStyle rect
skinparam defaultFontName FG Virgil
skinparam shadowing false  

interface Function {
    +getParameters()    
}
class FunctionWizardAction{    
}
class FunctionWizardUI{
}
class FunctionWizardController {
    +calculateResult()
    +calculateFunction()
    +getFunctions()
    +getDescription(String identifier)
    +getSyntax(String identifier)
    +insertSyntaxFormulaBar(String syntax)
    +compile()
}
class Language{
    +getFunctions()
    +getFunction(String identifier)
}
class FunctionParameter{
    +getDescription()
}

class FunctionUtils{
    +calculateResult()
    +getSyntax()
    +getFunctions()
}

FunctionWizardAction -> FunctionWizardUI 
FunctionWizardUI --> FunctionWizardController 
FunctionWizardController -> Language 
FunctionWizardController -> FunctionUtils
Language --> Function 

Function -> FunctionParameter
@enduml

