@startuml formulas_domain_model.png

'http://plantuml.com/skinparam.html'


class Formula {
	+Formula(Cell cell, Expression expression) 
}
interface Expression {
	+Value evaluate()
	+Object accept(ExpressionVisitor visitor)
}
interface Reference
interface Operator
interface UnaryOperator
note right : <b>concrete classes:\nPercent, etc.
interface BinaryOperator
note left : <b>concrete classes:\nAdder, LessThan, etc.
interface NaryOperator 

abstract class Operation <O extends Operator> {
    getOperator() 
}
class UnaryOperation
class BinaryOperation
class NaryOperation
class FunctionCall
class Literal
interface ExpressionVisitor {
	+Object visitLiteral(Literal literal)
	+Object visitUnaryOperation(UnaryOperation operation)
	+Object visitBinaryOperation(BinaryOperation operation)
	+Object visitReference(Reference reference)
	+Object visitFunctionCall(FunctionCall call)
	+Object visitNaryOperation(NaryOperation operation)
        <b>+Object visitMonetaryValue(MonetaryValue operation)</b>
}
note right : <b>Vistior pattern to transverse\n<b>expressions and compile them
Expression <|-- Formula
Expression <|-- Reference
Expression <|-- Operation
Expression <|-- FunctionCall
Expression <|-- MonetaryValue
Expression <|-- Literal
Operation <|-- UnaryOperation
Operation <|-- BinaryOperation
Operation <|-- NaryOperation
Formula --> Reference : getReferences()
Reference --> Cell : getCells();
Cell --> Formula : getFormula
UnaryOperation --> Expression : operand
BinaryOperation --> Expression : leftOperand
BinaryOperation --> Expression : rightOperand
NaryOperation --> Expression : operands

Operator <|-- UnaryOperator
Operator <|-- BinaryOperator
Operator <|-- NaryOperator

UnaryOperation *-- UnaryOperator
BinaryOperation *-- BinaryOperator
NaryOperation *-- NaryOperator


@enduml